<?xml version="1.0" encoding="UTF-8" standalone="no" ?>
<!DOCTYPE svg PUBLIC "-//W3C//DTD SVG 1.1//EN" "http://www.w3.org/Graphics/SVG/1.1/DTD/svg11.dtd">
<svg xmlns="http://www.w3.org/2000/svg" xmlns:xlink="http://www.w3.org/1999/xlink" version="1.1" width="500" height="200" viewBox="0 0 500 200" xml:space="preserve">
<desc>Created with Fabric.js 4.6.0</desc>
<defs>
</defs>
<g transform="matrix(1.01 0 0 1.05 255.28 99.67)" style="" id="mT1olb_0HXi_DP5i92HQi"  >
		<text xml:space="preserve" font-family="Courier Prime" font-size="58" font-style="normal" font-weight="600" letter-spacing="-1.508" line-height="1.16" style="stroke: none; stroke-width: 1; stroke-dasharray: none; stroke-linecap: butt; stroke-dashoffset: 0; stroke-linejoin: miter; stroke-miterlimit: 4; fill: rgb(255,255,255); fill-rule: nonzero; opacity: 1; white-space: pre;" ><tspan x="-183.74" y="18.22" >C</tspan><tspan x="-150.47" y="18.22" >O</tspan><tspan x="-117.2" y="18.22" >R</tspan><tspan x="-83.93" y="18.22" >E</tspan><tspan x="-50.66" y="18.22" style="white-space: pre; "> </tspan><tspan x="-17.39" y="18.22" style="white-space: pre; "> </tspan><tspan x="15.88" y="18.22" style="white-space: pre; "> </tspan><tspan x="49.15" y="18.22" >D</tspan><tspan x="82.42" y="18.22" >U</tspan><tspan x="115.69" y="18.22" >M</tspan><tspan x="148.96" y="18.22" >P</tspan></text>
</g>
<g transform="matrix(0.94 0 0 0.71 255.28 102.2)" id="XsxtFlegOaH2nDcn7P6Fx"  >
<path style="stroke: rgb(255,255,255); stroke-width: 4; stroke-dasharray: none; stroke-linecap: butt; stroke-dashoffset: 0; stroke-linejoin: miter; stroke-miterlimit: 4; fill: none; fill-rule: nonzero; opacity: 1;" vector-effect="non-scaling-stroke"  transform=" translate(0, 0)" d="M -19.15888 -19.15888 L 19.158869999999997 -19.15888 L 19.158869999999997 19.158869999999997 L -19.15888 19.158869999999997 z" stroke-linecap="round" />
</g>
<g transform="matrix(1.01 0 0 1.05 255.28 59.27)" id="xEnrhHFm4RVaFcTm7uqXc"  >
<path style="stroke: rgb(255,255,255); stroke-width: 2; stroke-dasharray: none; stroke-linecap: butt; stroke-dashoffset: 0; stroke-linejoin: miter; stroke-miterlimit: 4; fill: rgb(255,255,255); fill-opacity: 0; fill-rule: nonzero; opacity: 1;" vector-effect="non-scaling-stroke"  transform=" translate(0, 0)" d="M 0 26.08187 C 0 26.08187 0 -13.040940000000003 0 -26.08187" stroke-linecap="round" />
</g>
<g transform="matrix(1.66 0 0 1.03 288.77 59.74)" id="c2TjHbfPvLaa172xT6lOj"  >
<path style="stroke: rgb(255,255,255); stroke-width: 2; stroke-dasharray: none; stroke-linecap: butt; stroke-dashoffset: 0; stroke-linejoin: miter; stroke-miterlimit: 4; fill: rgb(255,255,255); fill-opacity: 0; fill-rule: nonzero; opacity: 1;" vector-effect="non-scaling-stroke"  transform=" translate(0, 0)" d="M -16.14786 26.58187 L -16.14786 1.9765499999999996 L 16.14786 -26.581870000000002" stroke-linecap="round" />
</g>
<g transform="matrix(0.8 0 0 1.15 176.48 64.58)" id="DqRQ_57i-T2lFseHFBdmz"  >
<path style="stroke: rgb(255,255,255); stroke-width: 2; stroke-dasharray: none; stroke-linecap: butt; stroke-dashoffset: 0; stroke-linejoin: miter; stroke-miterlimit: 4; fill: rgb(255,255,255); fill-opacity: 0; fill-rule: nonzero; opacity: 1;" vector-effect="non-scaling-stroke"  transform=" translate(0, 0)" d="M 88.1323 19.96708 L 88.1323 6.10295 L 60.50584 -19.96709 L -88.13228999999998 -19.96709" stroke-linecap="round" />
</g>
<g transform="matrix(1.01 0 0 1.07 328.35 142.12)" id="iJDtCYA1H3JzY2tY5_Sm2"  >
<path style="stroke: rgb(255,255,255); stroke-width: 2; stroke-dasharray: none; stroke-linecap: butt; stroke-dashoffset: 0; stroke-linejoin: miter; stroke-miterlimit: 4; fill: rgb(255,255,255); fill-opacity: 0; fill-rule: nonzero; opacity: 1;" vector-effect="non-scaling-stroke"  transform=" translate(0, 0)" d="M -66.00875 -23.73277 L -52.467620000000004 0.7755800000000015 L 24.374519999999997 0.7755800000000015 L 66.00876 23.73278" stroke-linecap="round" />
</g>
<g transform="matrix(0.61 0 0 1.05 243.6 141.71)" id="p0IBMmoMzTwiPmp4aXVuc"  >
<path style="stroke: rgb(255,255,255); stroke-width: 2; stroke-dasharray: none; stroke-linecap: butt; stroke-dashoffset: 0; stroke-linejoin: miter; stroke-miterlimit: 4; fill: rgb(255,255,255); fill-opacity: 0; fill-rule: nonzero; opacity: 1;" vector-effect="non-scaling-stroke"  transform=" translate(0, 0)" d="M 18.39318 -25.15272 L 18.39318 2.862840000000002 L -18.393189999999997 25.152720000000002" stroke-linecap="round" />
</g>
<g transform="matrix(1.01 0 0 1.05 351.84 62.29)" id="ZO5LyvFnJBZwF7uiNoup9"  >
<path style="stroke: rgb(255,255,255); stroke-width: 2; stroke-dasharray: none; stroke-linecap: butt; stroke-dashoffset: 0; stroke-linejoin: miter; stroke-miterlimit: 4; fill: rgb(255,255,255); fill-opacity: 0; fill-rule: nonzero; opacity: 1;" vector-effect="non-scaling-stroke"  transform=" translate(0, 0)" d="M -77.43191 24.69179 L -55.92024000000001 -2.8900799999999975 L 54.4747 -2.8900799999999975 L 77.4319 -24.691799999999997" stroke-linecap="round" />
</g>
<g transform="matrix(1.01 0 0 1.05 357.86 136.3)" id="rN_uExCiMJB8H1HHRGsT5"  >
<path style="stroke: rgb(255,255,255); stroke-width: 2; stroke-dasharray: none; stroke-linecap: butt; stroke-dashoffset: 0; stroke-linejoin: miter; stroke-miterlimit: 4; fill: rgb(255,255,255); fill-opacity: 0; fill-rule: nonzero; opacity: 1;" vector-effect="non-scaling-stroke"  transform=" translate(0, 0)" d="M -81.61173 -18.1462 L -67.4155 -4.81101 L 26.35882000000001 -4.81101 L 81.61174000000001 18.14619" stroke-linecap="round" />
</g>
<g transform="matrix(1.01 0 0 1.05 151.54 134.58)" id="PJFJP1BNdaFuliEERnUQF"  >
<path style="stroke: rgb(255,255,255); stroke-width: 2; stroke-dasharray: none; stroke-linecap: butt; stroke-dashoffset: 0; stroke-linejoin: miter; stroke-miterlimit: 4; fill: rgb(255,255,255); fill-opacity: 0; fill-rule: nonzero; opacity: 1;" vector-effect="non-scaling-stroke"  transform=" translate(0, 0)" d="M 82.76678 -17.03433 L 51.97447 -3.19914 L -63.58973 -3.19914 L -82.76677000000001 17.03432" stroke-linecap="round" />
</g>
<g transform="matrix(1.35 0 0 1.05 199.87 141.45)" id="Rh8HLQQvqQ6IHJdSX33ky"  >
<path style="stroke: rgb(255,255,255); stroke-width: 2; stroke-dasharray: none; stroke-linecap: butt; stroke-dashoffset: 0; stroke-linejoin: miter; stroke-miterlimit: 4; fill: rgb(255,255,255); fill-opacity: 0; fill-rule: nonzero; opacity: 1;" vector-effect="non-scaling-stroke"  transform=" translate(0, 0)" d="M 35.0749 -25.40272 L 35.0749 -9.727619999999998 L -24.569070000000004 11.005840000000003 L -35.07491 25.402730000000005" stroke-linecap="round" />
</g>
<g transform="matrix(1.01 0 0 1.05 145.72 76.38)" id="_PrqMJYmTKGCrFdIivQnB"  >
<path style="stroke: rgb(255,255,255); stroke-width: 2; stroke-dasharray: none; stroke-linecap: butt; stroke-dashoffset: 0; stroke-linejoin: miter; stroke-miterlimit: 4; fill: rgb(255,255,255); fill-opacity: 0; fill-rule: nonzero; opacity: 1;" vector-effect="non-scaling-stroke"  transform=" translate(0, 0)" d="M 89.35223 11.71222 L 60.06410000000001 -11.71222 L -89.35223999999998 -11.71222" stroke-linecap="round" />
</g>
<g transform="matrix(1.01 0 0 1.05 237.17 88.64)" id="28OVLMD4c2kiuyO330_wJ"  >
<path style="stroke: rgb(155,113,159); stroke-width: 0; stroke-dasharray: none; stroke-linecap: butt; stroke-dashoffset: 0; stroke-linejoin: miter; stroke-miterlimit: 4; fill: rgb(255,255,255); fill-rule: nonzero; opacity: 1;" vector-effect="non-scaling-stroke"  transform=" translate(-5.69, -5.69)" d="M 5.68628 0 C 8.825099999999999 0 11.37256 2.54745 11.37256 5.68628 C 11.37256 8.825099999999999 8.82511 11.37256 5.68628 11.37256 C 2.54746 11.37256 0 8.82511 0 5.68628 C 0 2.54746 2.54745 0 5.68628 0 z" stroke-linecap="round" />
</g>
<g transform="matrix(1.01 0 0 1.05 274.24 89.15)" id="U6rKS0Skr2jLmAY0zzs4D"  >
<path style="stroke: rgb(155,113,159); stroke-width: 0; stroke-dasharray: none; stroke-linecap: butt; stroke-dashoffset: 0; stroke-linejoin: miter; stroke-miterlimit: 4; fill: rgb(255,255,255); fill-rule: nonzero; opacity: 1;" vector-effect="non-scaling-stroke"  transform=" translate(-5.69, -5.69)" d="M 5.68628 0 C 8.825099999999999 0 11.37256 2.54745 11.37256 5.68628 C 11.37256 8.825099999999999 8.82511 11.37256 5.68628 11.37256 C 2.54746 11.37256 0 8.82511 0 5.68628 C 0 2.54746 2.54745 0 5.68628 0 z" stroke-linecap="round" />
</g>
<g transform="matrix(1.01 0 0 1.05 237.17 115.76)" id="61c9GclSoNVnpetmyIvyI"  >
<path style="stroke: rgb(155,113,159); stroke-width: 0; stroke-dasharray: none; stroke-linecap: butt; stroke-dashoffset: 0; stroke-linejoin: miter; stroke-miterlimit: 4; fill: rgb(255,255,255); fill-rule: nonzero; opacity: 1;" vector-effect="non-scaling-stroke"  transform=" translate(-5.69, -5.69)" d="M 5.68628 0 C 8.825099999999999 0 11.37256 2.54745 11.37256 5.68628 C 11.37256 8.825099999999999 8.82511 11.37256 5.68628 11.37256 C 2.54746 11.37256 0 8.82511 0 5.68628 C 0 2.54746 2.54745 0 5.68628 0 z" stroke-linecap="round" />
</g>
<g transform="matrix(1.01 0 0 1.05 274.24 115.76)" id="pBfbug4cSDMDMXtJbPOdR"  >
<path style="stroke: rgb(155,113,159); stroke-width: 0; stroke-dasharray: none; stroke-linecap: butt; stroke-dashoffset: 0; stroke-linejoin: miter; stroke-miterlimit: 4; fill: rgb(255,255,255); fill-rule: nonzero; opacity: 1;" vector-effect="non-scaling-stroke"  transform=" translate(-5.69, -5.69)" d="M 5.68628 0 C 8.825099999999999 0 11.37256 2.54745 11.37256 5.68628 C 11.37256 8.825099999999999 8.82511 11.37256 5.68628 11.37256 C 2.54746 11.37256 0 8.82511 0 5.68628 C 0 2.54746 2.54745 0 5.68628 0 z" stroke-linecap="round" />
</g>
<g transform="matrix(1.01 0 0 1.05 151.54 169.05)" id="jePWbtDwhYjldsxidltbd"  >
<path style="stroke: rgb(155,113,159); stroke-width: 0; stroke-dasharray: none; stroke-linecap: butt; stroke-dashoffset: 0; stroke-linejoin: miter; stroke-miterlimit: 4; fill: rgb(255,255,255); fill-rule: nonzero; opacity: 1;" vector-effect="non-scaling-stroke"  transform=" translate(-5.69, -5.69)" d="M 5.68628 0 C 8.825099999999999 0 11.37256 2.54745 11.37256 5.68628 C 11.37256 8.825099999999999 8.82511 11.37256 5.68628 11.37256 C 2.54746 11.37256 0 8.82511 0 5.68628 C 0 2.54746 2.54745 0 5.68628 0 z" stroke-linecap="round" />
</g>
<g transform="matrix(1.01 0 0 1.05 233.72 167.49)" id="8z1sHZVsGbuHMnQfZF-wI"  >
<path style="stroke: rgb(155,113,159); stroke-width: 0; stroke-dasharray: none; stroke-linecap: butt; stroke-dashoffset: 0; stroke-linejoin: miter; stroke-miterlimit: 4; fill: rgb(255,255,255); fill-rule: nonzero; opacity: 1;" vector-effect="non-scaling-stroke"  transform=" translate(-5.69, -5.69)" d="M 5.68628 0 C 8.825099999999999 0 11.37256 2.54745 11.37256 5.68628 C 11.37256 8.825099999999999 8.82511 11.37256 5.68628 11.37256 C 2.54746 11.37256 0 8.82511 0 5.68628 C 0 2.54746 2.54745 0 5.68628 0 z" stroke-linecap="round" />
</g>
<g transform="matrix(1.01 0 0 1.05 394.49 167.49)" id="jDfd4Qny1o9etgx7nlRRE"  >
<path style="stroke: rgb(155,113,159); stroke-width: 0; stroke-dasharray: none; stroke-linecap: butt; stroke-dashoffset: 0; stroke-linejoin: miter; stroke-miterlimit: 4; fill: rgb(255,255,255); fill-rule: nonzero; opacity: 1;" vector-effect="non-scaling-stroke"  transform=" translate(-5.69, -5.69)" d="M 5.68628 0 C 8.825099999999999 0 11.37256 2.54745 11.37256 5.68628 C 11.37256 8.825099999999999 8.82511 11.37256 5.68628 11.37256 C 2.54746 11.37256 0 8.82511 0 5.68628 C 0 2.54746 2.54745 0 5.68628 0 z" stroke-linecap="round" />
</g>
<g transform="matrix(1.01 0 0 1.05 441.48 156.32)" id="K8dgHRCS7-n5O7VGsTfjE"  >
<path style="stroke: rgb(155,113,159); stroke-width: 0; stroke-dasharray: none; stroke-linecap: butt; stroke-dashoffset: 0; stroke-linejoin: miter; stroke-miterlimit: 4; fill: rgb(255,255,255); fill-rule: nonzero; opacity: 1;" vector-effect="non-scaling-stroke"  transform=" translate(-5.69, -5.69)" d="M 5.68628 0 C 8.825099999999999 0 11.37256 2.54745 11.37256 5.68628 C 11.37256 8.825099999999999 8.82511 11.37256 5.68628 11.37256 C 2.54746 11.37256 0 8.82511 0 5.68628 C 0 2.54746 2.54745 0 5.68628 0 z" stroke-linecap="round" />
</g>
<g transform="matrix(1.01 0 0 1.05 67.27 153.47)" id="X0mCuFv5XGqTpmnPIhIy-"  >
<path style="stroke: rgb(155,113,159); stroke-width: 0; stroke-dasharray: none; stroke-linecap: butt; stroke-dashoffset: 0; stroke-linejoin: miter; stroke-miterlimit: 4; fill: rgb(255,255,255); fill-rule: nonzero; opacity: 1;" vector-effect="non-scaling-stroke"  transform=" translate(-5.69, -5.69)" d="M 5.68628 0 C 8.825099999999999 0 11.37256 2.54745 11.37256 5.68628 C 11.37256 8.825099999999999 8.82511 11.37256 5.68628 11.37256 C 2.54746 11.37256 0 8.82511 0 5.68628 C 0 2.54746 2.54745 0 5.68628 0 z" stroke-linecap="round" />
</g>
<g transform="matrix(1.01 0 0 1.05 431.23 36.37)" id="LX5C5cmB0L7iT7w97X3nt"  >
<path style="stroke: rgb(155,113,159); stroke-width: 0; stroke-dasharray: none; stroke-linecap: butt; stroke-dashoffset: 0; stroke-linejoin: miter; stroke-miterlimit: 4; fill: rgb(255,255,255); fill-rule: nonzero; opacity: 1;" vector-effect="non-scaling-stroke"  transform=" translate(-5.69, -5.69)" d="M 5.68628 0 C 8.825099999999999 0 11.37256 2.54745 11.37256 5.68628 C 11.37256 8.825099999999999 8.82511 11.37256 5.68628 11.37256 C 2.54746 11.37256 0 8.82511 0 5.68628 C 0 2.54746 2.54745 0 5.68628 0 z" stroke-linecap="round" />
</g>
<g transform="matrix(1.01 0 0 1.05 316.51 31.36)" id="ivgupYkMCrDZmAKWTtsyn"  >
<path style="stroke: rgb(155,113,159); stroke-width: 0; stroke-dasharray: none; stroke-linecap: butt; stroke-dashoffset: 0; stroke-linejoin: miter; stroke-miterlimit: 4; fill: rgb(255,255,255); fill-rule: nonzero; opacity: 1;" vector-effect="non-scaling-stroke"  transform=" translate(-5.69, -5.69)" d="M 5.68628 0 C 8.825099999999999 0 11.37256 2.54745 11.37256 5.68628 C 11.37256 8.825099999999999 8.82511 11.37256 5.68628 11.37256 C 2.54746 11.37256 0 8.82511 0 5.68628 C 0 2.54746 2.54745 0 5.68628 0 z" stroke-linecap="round" />
</g>
<g transform="matrix(1.01 0 0 1.05 255.57 30.95)" id="3oLURDb-7exkTsh_oB7zN"  >
<path style="stroke: rgb(155,113,159); stroke-width: 0; stroke-dasharray: none; stroke-linecap: butt; stroke-dashoffset: 0; stroke-linejoin: miter; stroke-miterlimit: 4; fill: rgb(255,255,255); fill-rule: nonzero; opacity: 1;" vector-effect="non-scaling-stroke"  transform=" translate(-5.69, -5.69)" d="M 5.68628 0 C 8.825099999999999 0 11.37256 2.54745 11.37256 5.68628 C 11.37256 8.825099999999999 8.82511 11.37256 5.68628 11.37256 C 2.54746 11.37256 0 8.82511 0 5.68628 C 0 2.54746 2.54745 0 5.68628 0 z" stroke-linecap="round" />
</g>
<g transform="matrix(1.01 0 0 1.05 55.76 63.83)" id="De_hRNhJ2O_FkFHLuJj6F"  >
<path style="stroke: rgb(155,113,159); stroke-width: 0; stroke-dasharray: none; stroke-linecap: butt; stroke-dashoffset: 0; stroke-linejoin: miter; stroke-miterlimit: 4; fill: rgb(255,255,255); fill-rule: nonzero; opacity: 1;" vector-effect="non-scaling-stroke"  transform=" translate(-5.69, -5.69)" d="M 5.68628 0 C 8.825099999999999 0 11.37256 2.54745 11.37256 5.68628 C 11.37256 8.825099999999999 8.82511 11.37256 5.68628 11.37256 C 2.54746 11.37256 0 8.82511 0 5.68628 C 0 2.54746 2.54745 0 5.68628 0 z" stroke-linecap="round" />
</g>
<g transform="matrix(1.01 0 0 1.05 105.26 41.37)" id="HVC02e6zHV6e8T7AEZ6l9"  >
<path style="stroke: rgb(155,113,159); stroke-width: 0; stroke-dasharray: none; stroke-linecap: butt; stroke-dashoffset: 0; stroke-linejoin: miter; stroke-miterlimit: 4; fill: rgb(255,255,255); fill-rule: nonzero; opacity: 1;" vector-effect="non-scaling-stroke"  transform=" translate(-5.69, -5.69)" d="M 5.68628 0 C 8.825099999999999 0 11.37256 2.54745 11.37256 5.68628 C 11.37256 8.825099999999999 8.82511 11.37256 5.68628 11.37256 C 2.54746 11.37256 0 8.82511 0 5.68628 C 0 2.54746 2.54745 0 5.68628 0 z" stroke-linecap="round" />
</g>
</svg>